<svg viewBox="0 0 320 112" fill="none" xmlns="http://www.w3.org/2000/svg" role="img" aria-label="Модуль памяти">
  <rect x="6" y="14" width="308" height="74" rx="4" stroke="currentColor" stroke-width="2.5"></rect>
  <rect x="18" y="26" width="284" height="20" rx="2" stroke="currentColor" stroke-width="2"></rect>
  <g stroke="currentColor" stroke-width="2">
    <rect x="22" y="54" width="40" height="20" rx="1.5"></rect>
    <rect x="70" y="54" width="40" height="20" rx="1.5"></rect>
    <rect x="118" y="54" width="40" height="20" rx="1.5"></rect>
    <rect x="166" y="54" width="40" height="20" rx="1.5"></rect>
    <rect x="214" y="54" width="40" height="20" rx="1.5"></rect>
    <rect x="262" y="54" width="36" height="20" rx="1.5"></rect>
  </g>
  <path d="M150 88 V100 H176 V88" stroke="currentColor" stroke-width="2.5" stroke-linejoin="round"></path>
  <g stroke="currentColor" stroke-width="2" stroke-linecap="round">
    <path d="M22 92 V102"></path><path d="M30 92 V102"></path><path d="M38 92 V102"></path><path d="M46 92 V102"></path><path d="M54 92 V102"></path>
    <path d="M62 92 V102"></path><path d="M70 92 V102"></path><path d="M78 92 V102"></path><path d="M86 92 V102"></path><path d="M94 92 V102"></path>
    <path d="M102 92 V102"></path><path d="M110 92 V102"></path><path d="M118 92 V102"></path><path d="M126 92 V102"></path><path d="M134 92 V102"></path>
    <path d="M192 92 V102"></path><path d="M200 92 V102"></path><path d="M208 92 V102"></path><path d="M216 92 V102"></path><path d="M224 92 V102"></path>
    <path d="M232 92 V102"></path><path d="M240 92 V102"></path><path d="M248 92 V102"></path><path d="M256 92 V102"></path><path d="M264 92 V102"></path>
    <path d="M272 92 V102"></path><path d="M280 92 V102"></path><path d="M288 92 V102"></path><path d="M296 92 V102"></path>
  </g>
</svg>
